<?xml version="1.0" encoding="UTF-8"?>
<svg width="24px" height="24px" viewBox="0 0 24 24" version="1.1" xmlns="http://www.w3.org/2000/svg" xmlns:xlink="http://www.w3.org/1999/xlink">
    <!-- Generator: Sketch 52.5 (67469) - http://www.bohemiancoding.com/sketch -->
    <title>Group 3</title>
    <desc>Created with Sketch.</desc>
    <g id="Page-1" stroke="none" stroke-width="1" fill="none" fill-rule="evenodd">
        <g id="Artboard-Copy-4" transform="translate(-9.000000, -10.000000)">
            <g id="Group-3" transform="translate(9.000000, 10.000000)">
                <g id="Group" fill="#225A8B">
                    <rect id="Rectangle" x="0" y="0" width="24" height="24" rx="2"></rect>
                </g>
                <path d="M5.3767761,8.76564344 C5.3767761,8.60939369 5.41974463,8.46876903 5.50568204,8.34376945 C5.59161946,8.21876986 5.70490032,8.12502009 5.84552498,8.06252012 L9.12676716,6.75002325 L9.12676716,15.7500018 L5.89239987,17.2265608 C5.76740029,17.2734357 5.65021307,17.2578106 5.54083821,17.1796859 C5.43146335,17.1015612 5.3767761,16.9999987 5.3767761,16.8749991 L5.3767761,8.76564344 Z M9.87676537,15.7500018 L9.87676537,6.75002325 L14.3767546,8.25001967 L14.3767546,17.2499982 L9.87676537,15.7500018 Z M18.3611201,6.77346069 C18.4861197,6.7265858 18.6033069,6.74221088 18.7126818,6.82033558 C18.8220567,6.89846027 18.8767439,7.00002277 18.8767439,7.12502235 L18.8767439,15.234378 C18.8767439,15.3906278 18.8337754,15.5312524 18.747838,15.656252 C18.6619006,15.7812516 18.5486197,15.8750014 18.407995,15.9375013 L15.1267529,17.2499982 L15.1267529,8.25001967 L18.3611201,6.77346069 Z" id="map" fill="#FFFFFF"></path>
            </g>
        </g>
    </g>
</svg>